HIERARCHY
ROOT Hips
{
	OFFSET -0.179506 -22.333345 2.821913
	CHANNELS 6 Xposition Yposition Zposition Zrotation Yrotation Xrotation 
	JOINT LeftUpLeg
	{
		OFFSET 6.951974 -9.140623 -0.681533
		CHANNELS 3 Zrotation Yrotation Xrotation
		JOINT LeftLeg
		{
			OFFSET 3.427654 -37.519855 -0.449580
			CHANNELS 3 Zrotation Yrotation Xrotation
			JOINT LeftFoot
			{
				OFFSET -1.359570 -39.796059 -4.369333
				CHANNELS 3 Zrotation Yrotation Xrotation
				JOINT LeftToe
				{
					OFFSET 2.635814 -5.579078 11.928840
					CHANNELS 3 Zrotation Yrotation Xrotation
					End Site
					{
						OFFSET 0.000000 0.000000 0.000000
					}
				}
			}
		}
	}
	JOINT RightUpLeg
	{
		OFFSET -6.767048 -9.052170 -0.431982
		CHANNELS 3 Zrotation Yrotation Xrotation
		JOINT RightLeg
		{
			OFFSET -3.829005 -38.256897 -0.885003
			CHANNELS 3 Zrotation Yrotation Xrotation
			JOINT RightFoot
			{
				OFFSET 1.577377 -39.841461 -4.231180
				CHANNELS 3 Zrotation Yrotation Xrotation
				JOINT RightToe
				{
					OFFSET -2.537174 -4.814398 12.334795
					CHANNELS 3 Zrotation Yrotation Xrotation
					End Site
					{
						OFFSET 0.000000 0.000000 0.000000
					}
				}
			}
		}
	}
	JOINT Spine
	{
		OFFSET -0.253288 10.896323 -2.669631
		CHANNELS 3 Zrotation Yrotation Xrotation
		JOINT Spine1
		{
			OFFSET 0.548704 13.518043 0.109247
			CHANNELS 3 Zrotation Yrotation Xrotation
			JOINT Spine2
			{
				OFFSET 0.145701 5.292222 2.542457
				CHANNELS 3 Zrotation Yrotation Xrotation
				JOINT Neck
				{
					OFFSET -0.277840 21.387037 -4.285703
					CHANNELS 3 Zrotation Yrotation Xrotation
					JOINT Head
					{
						OFFSET 0.515184 6.496960 5.134897
						CHANNELS 3 Zrotation Yrotation Xrotation
						End Site
						{
							OFFSET 0.000000 0.000000 0.000000
						}
					}
				}
				JOINT LeftShoulder
				{
					OFFSET 7.884473 12.174932 -3.408961
					CHANNELS 3 Zrotation Yrotation Xrotation
					JOINT LeftArm
					{
						OFFSET 9.097692 3.046888 -0.886815
						CHANNELS 3 Zrotation Yrotation Xrotation
						JOINT LeftForeArm
						{
							OFFSET 25.961220 -1.277207 -2.745643
							CHANNELS 3 Zrotation Yrotation Xrotation
							JOINT LeftHand
							{
								OFFSET 24.923361 0.898606 -0.117091
								CHANNELS 3 Zrotation Yrotation Xrotation
								End Site
								{
									OFFSET 0.000000 0.000000 0.000000
								}
							}
						}
					}
				}
				JOINT RightShoulder
				{
					OFFSET -8.175920 11.883285 -3.861528
					CHANNELS 3 Zrotation Yrotation Xrotation
					JOINT RightArm
					{
						OFFSET -9.601238 3.255117 -0.914307
						CHANNELS 3 Zrotation Yrotation Xrotation
						JOINT RightForeArm
						{
							OFFSET -25.374195 -1.332924 -2.140099
							CHANNELS 3 Zrotation Yrotation Xrotation
							JOINT RightHand
							{
								OFFSET -25.529810 0.777228 -0.555919
								CHANNELS 3 Zrotation Yrotation Xrotation
								End Site
								{
									OFFSET 0.000000 0.000000 0.000000
								}
							}
						}
					}
				}
			}
		}
	}
}
MOTION
Frames: 15
Frame Time: 0.033333
-408.962952 272.925446 87.844208 -136.766007 -1.085626 93.344465 -0.096828 6.561134 5.215340 -1.718293 9.026972 6.000077 4.911617 21.449446 -12.717009 nan nan nan -2.526256 -3.711512 -8.148355 2.222807 -4.895936 9.328805 4.906223 -9.159570 17.858996 nan nan nan -2.718852 -0.939270 -4.539694 5.299903 -5.233618 9.083511 -1.474704 -1.632058 -5.414222 0.868202 -22.493258 6.174402 3.007204 -16.390268 6.127312 -28.913626 -0.354266 3.586554 -55.893387 -7.512333 19.997906 3.894870 -19.467061 7.992623 -9.707854 -5.123900 18.425965 30.137726 4.207911 -0.772119 53.237563 1.529505 14.054361 -5.238678 23.741582 2.005148 5.916889 5.111394 10.375630 
-408.991272 272.928345 87.806198 -136.625108 -1.066834 93.312926 0.129231 6.517154 5.641040 -1.656611 8.441944 5.156853 5.029304 21.478912 -12.978351 nan nan nan -2.686094 -3.278247 -7.772901 2.090212 -3.918112 10.306792 5.129081 -8.917414 17.082554 nan nan nan -2.713853 -1.055954 -4.657190 5.307190 -5.307354 9.091351 -1.533094 -1.618566 -5.311440 1.594358 -22.753773 6.023272 3.468091 -16.570364 6.264438 -28.463199 -0.410060 3.647034 -56.167487 -7.585666 20.188660 3.355796 -19.363155 8.778650 -9.560501 -5.336385 17.979690 29.547224 4.213900 -0.686461 53.599687 1.709527 14.322346 -4.825160 23.702761 2.891054 5.667063 5.296016 9.907875 
-408.956818 272.968628 87.795769 -136.636505 -1.119664 93.278658 0.074645 6.669574 6.204142 -1.512011 8.423649 4.181920 4.977238 21.553254 -12.813935 nan nan nan -2.461610 -3.374421 -7.937545 2.233703 -4.349359 9.098729 5.223196 -9.056202 17.450039 nan nan nan -2.756759 -1.097038 -4.615557 5.182371 -5.155380 9.091059 -1.570919 -1.549169 -5.069145 1.335904 -21.472697 5.951912 3.095082 -15.765306 6.148710 -27.927300 -0.391748 3.551945 -56.522353 -7.718712 20.305365 3.250765 -19.327413 9.173799 -9.417238 -5.387303 17.912563 29.227121 4.131596 -0.645129 54.164484 1.904464 14.414550 -5.032717 23.709064 3.030238 5.392482 5.218888 9.970039 
-408.869781 272.976471 87.881569 -136.624437 -1.026886 92.838999 0.535484 6.921976 8.794560 -1.180728 7.104744 2.752773 5.027231 21.997991 -14.331528 nan nan nan -2.338513 -2.775117 -7.067827 2.212085 -2.798741 9.371381 5.643253 -8.495510 15.868960 nan nan nan -2.954541 -1.615156 -4.932295 5.176772 -5.464894 9.822909 -1.622866 -1.700859 -4.539619 1.721037 -20.132512 5.752976 3.275060 -14.344954 6.264889 -27.618861 -0.006752 3.339825 -56.815554 -8.051763 19.738673 3.464929 -19.256765 8.912897 -9.568233 -4.598690 18.704404 29.335608 4.097713 -0.268521 54.283715 4.033242 14.551603 -4.824643 22.537366 3.097208 6.150602 4.806198 10.560007 
-408.848663 272.999176 87.880569 -136.513868 -0.964713 92.699566 0.459633 6.919613 9.429586 -1.091768 6.700892 2.318805 4.989308 22.076648 -14.746146 nan nan nan -2.232656 -2.641838 -6.836789 2.257152 -2.539726 9.168650 5.803489 -8.313735 15.626241 nan nan nan -2.948667 -1.670819 -4.981369 5.205106 -5.490018 10.120327 -1.555493 -1.674884 -4.398956 1.850108 -19.549148 5.776657 3.470179 -13.820561 5.925313 -27.620812 -0.054837 3.335464 -57.034936 -8.068275 19.575565 3.713434 -19.445391 8.927904 -9.133826 -4.734211 19.174452 29.304612 4.152962 -0.051831 54.240439 4.347217 14.311108 -4.896868 22.365559 3.023999 5.928870 5.044169 11.042557 
-408.814178 273.045166 87.894905 -136.449192 -1.031823 92.565379 0.457806 7.155366 9.917209 -1.023856 6.950911 1.814998 4.875529 22.155714 -14.512346 nan nan nan -2.122064 -2.918205 -6.920301 2.412254 -3.186373 8.138952 5.792207 -8.521033 16.085405 nan nan nan -3.002563 -1.726322 -4.985749 5.129939 -5.432213 10.196665 -1.596360 -1.668121 -4.194655 1.922755 -19.397467 6.093083 3.479139 -13.805611 6.000390 -27.341013 0.092176 3.291044 -57.299602 -8.233425 19.522131 3.883041 -19.457939 8.610785 -9.045833 -4.683332 19.162193 29.015980 4.116063 -0.026334 54.571270 4.518024 14.339898 -4.843570 22.281794 3.109787 5.909330 5.004429 11.092085 
-408.810669 273.021942 87.895462 -136.230157 -1.085632 92.435296 0.680264 7.140741 10.020008 -1.074929 6.519551 1.659975 4.942129 22.139879 -15.077015 nan nan nan -2.428592 -2.661124 -6.465728 2.218872 -2.403611 9.467279 5.963020 -8.221635 15.044321 nan nan nan -2.900612 -1.794969 -5.008195 5.023935 -5.516480 10.229112 -1.658406 -1.658181 -4.068423 2.083645 -18.668778 6.215764 3.631506 -13.082426 5.698351 -27.241471 0.045260 3.184046 -57.417651 -8.101073 19.484992 3.924025 -19.525092 8.931791 -8.706788 -4.942495 19.085384 28.697942 4.089031 0.098909 54.775880 4.687311 14.495047 -4.651333 22.177349 3.799159 5.710025 5.312096 10.939807 
-408.590851 273.253601 87.901398 -137.701436 -0.928325 92.484782 0.601619 7.290880 10.144780 -0.975119 6.915491 1.228564 4.904824 22.245246 -14.687020 nan nan nan -2.045099 -3.038207 -7.044831 2.369435 -3.243562 8.307059 6.064505 -8.373305 15.776590 nan nan nan -2.902950 -1.649341 -5.344374 5.003928 -5.154149 10.135984 -1.717677 -1.421794 -3.861581 2.069555 -17.412300 6.941105 3.314502 -12.247781 6.169253 -26.838860 0.919354 2.643691 -57.585685 -7.808717 19.545300 3.821421 -19.483076 8.969081 -8.778266 -4.651575 19.313506 28.581931 3.929236 0.167021 55.204847 5.557631 15.079735 -4.256956 21.300023 4.374655 5.660210 5.058757 11.607220 
-408.342804 273.068909 87.859421 -136.889344 -0.964466 92.799312 0.866830 7.659860 10.893631 -0.955046 7.262195 1.198716 5.003656 22.597710 -14.861068 nan nan nan -2.106606 -2.830906 -7.417900 2.369288 -2.968010 9.239103 6.048838 -8.262595 15.461560 nan nan nan -2.954605 -2.132580 -5.636195 5.078598 -5.493807 10.011165 -1.805683 -1.717083 -3.666840 1.572238 -17.311100 7.533495 2.936373 -11.752713 6.785355 -26.541256 0.907535 2.732564 -57.681546 -8.124973 19.522504 3.687356 -19.209983 9.078209 -8.949681 -4.037195 19.045755 28.486828 3.794104 -0.184053 55.532048 6.235520 15.529665 -4.235674 20.697842 4.462419 5.783009 4.512838 11.458143 
-408.184662 273.050354 87.841713 -136.768892 -0.974730 92.640397 0.892176 7.750669 11.859703 -0.879250 6.935693 1.054025 5.008423 22.779326 -15.321074 nan nan nan -1.988288 -2.647866 -7.285072 2.405823 -2.676905 9.261737 6.103190 -8.131169 15.043133 nan nan nan -3.051992 -2.315682 -5.830347 5.047689 -5.626789 10.501898 -1.840253 -1.771221 -3.459816 1.286701 -16.823758 7.895640 2.990587 -11.337699 6.529875 -26.317539 0.683356 2.911486 -57.703074 -8.444152 19.253911 3.761528 -19.184845 8.785410 -9.158111 -3.707933 19.117694 28.430390 4.124704 0.059180 55.822955 6.911322 15.490042 -4.513751 20.473033 3.975644 6.029022 4.337517 11.185140 
-408.113647 273.164612 87.910873 -136.977855 -1.062748 91.841539 0.966377 7.912858 13.321878 -0.679722 6.112608 -0.191522 4.915801 22.957034 -15.729140 nan nan nan -1.778075 -2.808059 -6.405023 2.556787 -2.469031 8.054430 6.290663 -8.093745 14.831906 nan nan nan -3.230072 -2.246989 -6.024966 4.871991 -5.729399 11.845042 -1.797998 -1.628445 -3.118723 1.617325 -15.346737 7.488639 3.388105 -10.227048 6.031854 -26.447426 -0.310931 3.487466 -57.303739 -8.847951 18.493989 3.934065 -19.337248 8.106001 -8.854669 -3.373266 19.830160 28.593105 5.217393 1.200519 55.858787 7.842263 14.725576 -5.118789 20.365280 2.939386 5.951362 4.153841 11.549976 
-407.950470 273.115936 87.870590 -136.984369 -0.805494 92.540393 0.915240 7.752808 12.072180 -0.782331 6.690323 0.325990 5.193427 23.053448 -15.657388 nan nan nan -1.743191 -2.614615 -7.202896 2.496316 -2.296057 9.332680 6.264079 -8.023171 14.864249 nan nan nan -3.057942 -2.260138 -5.750167 5.068614 -5.647759 10.798768 -1.755823 -1.671952 -3.249315 1.796337 -14.919205 7.112357 2.841654 -9.586290 7.171108 -26.204123 0.529142 2.852578 -57.722119 -8.588480 18.998916 3.805913 -19.277096 8.444315 -9.124064 -3.167415 18.978910 28.502087 4.237002 0.455258 55.839995 7.719375 15.422983 -4.718569 20.317495 3.442302 6.100926 3.842356 11.275289 
-408.066864 273.249542 87.992706 -136.848900 -0.756678 91.868750 0.266021 7.128819 11.874578 -0.734178 5.687890 -0.203188 4.941863 22.055405 -15.227638 nan nan nan -1.589639 -3.443570 -6.403640 2.812686 -3.759415 7.115501 6.138563 -8.463538 15.827750 nan nan nan -3.080534 -1.198938 -5.401677 4.653551 -5.041961 12.198429 -1.406046 -0.988893 -3.284402 3.422038 -13.857072 5.229902 3.830643 -11.028957 5.888904 -26.115258 -1.798811 3.942748 -57.951154 -9.661374 17.945503 5.442931 -19.442680 2.461612 -10.456848 -4.424998 15.714596 27.619318 6.681791 3.374096 56.624591 5.847569 12.692603 -7.723244 23.749226 -3.338127 7.267360 5.111351 5.125773 
-408.086090 273.231659 87.837990 -136.668322 -1.218102 93.168897 0.262159 6.877281 7.418277 -1.320520 7.486802 1.797438 5.081711 21.587931 -13.893491 nan nan nan -2.355652 -3.677720 -7.977658 2.373819 -4.715968 8.683065 5.477027 -9.063630 15.838998 nan nan nan -2.450689 -0.942123 -4.199873 4.241316 -4.707516 10.082481 -1.623200 -0.906167 -3.955346 3.062285 -14.185054 3.822205 3.733220 -11.051027 4.717503 -26.111522 -1.538358 4.157136 -57.690270 -7.875027 18.461243 5.688141 -21.198173 4.079120 -10.279593 -5.693391 13.349718 26.717323 5.337541 2.209098 57.680634 3.344739 12.683303 -7.598559 25.859130 -1.463620 6.403600 5.448690 3.973949 
-408.160706 273.117615 87.734772 -135.483486 -1.493694 95.523489 -1.882321 4.677349 0.227175 -2.174935 8.739072 3.997987 5.472155 20.419800 -10.342426 nan nan nan -2.946454 -4.518848 -10.919525 1.819591 -7.629323 9.682826 4.374544 -10.969206 18.801969 nan nan nan -1.916996 0.639870 -3.383298 3.928610 -3.150819 6.469112 -1.944753 -0.074028 -5.548203 2.825544 -16.321664 3.583179 3.933341 -12.102527 6.177979 -25.870779 -0.619744 2.652229 -57.886880 -7.890270 22.126151 3.596457 -19.291029 9.517534 -10.115417 -7.979645 11.621508 26.095424 1.262456 -1.733518 58.315469 -3.233577 12.574252 -7.163980 28.131057 -0.187259 5.242539 6.415534 3.186917 
